<?xml version="1.0" encoding="UTF-8"?><svg id="Layer_2" xmlns="http://www.w3.org/2000/svg" viewBox="0 0 1689.68 2125.04"><defs><style>.cls-1,.cls-2{fill:#231f20;}.cls-3{fill:#e02827;}.cls-2{font-family:Arial-BoldMT, Arial;font-size:229.86px;font-weight:700;}.cls-4{fill:none;stroke:#231f20;stroke-miterlimit:10;stroke-width:67px;}</style></defs><g id="Layer_1-2"><text class="cls-2" transform="translate(233.98 1336.05)"><tspan x="0" y="0">WEISSACH</tspan><tspan x="191.59" y="187.84">WERKS</tspan></text><rect class="cls-3" x="234.67" y="1063.44" width="1220.35" height="25.23"/><path class="cls-4" d="M1656.18,1084.16V176.03C1263.32,22.3,844.84,33.69,844.84,33.69c0,0-418.48-11.39-811.34,142.34v908.13h0c0,408.73,182.4,682.13,481.11,845.63l330.23,158.1,330.23-158.1c298.71-163.51,481.11-436.91,481.11-845.63h0Z"/><polygon class="cls-1" points="1252.33 421.83 1168.11 805.12 1071.92 421.83 1045.97 421.83 940.16 421.83 934.42 421.83 907.26 545.46 844.36 781.81 778.84 520.76 757.13 421.83 754.01 421.83 643.71 421.83 622.26 421.83 521.94 798.75 439.22 421.83 325.81 421.83 456.81 970.56 576.97 970.56 681.09 578.39 774.72 970.56 795.18 970.56 894.87 970.56 912.71 970.56 1008.26 577.09 1113.09 970.56 1230.62 970.56 1363.87 421.83 1252.33 421.83"/></g></svg>